<svg xmlns="http://www.w3.org/2000/svg" xmlns:xlink="http://www.w3.org/1999/xlink" width="256" zoomAndPan="magnify" viewBox="0 0 192 191.999996" height="256" preserveAspectRatio="xMidYMid meet" version="1.0"><defs><clipPath id="2426991570"><path d="M 55.363281 14 L 98.632812 14 L 98.632812 57 L 55.363281 57 Z M 55.363281 14 " clip-rule="nonzero"/></clipPath><clipPath id="e8b87fcc31"><path d="M 77 18.300781 C 67.574219 18.300781 59.914062 25.964844 59.914062 35.386719 C 59.914062 44.804688 67.578125 52.472656 77 52.472656 C 86.417969 52.472656 94.085938 44.804688 94.085938 35.386719 C 94.085938 25.964844 86.417969 18.300781 77 18.300781 M 77 56.753906 C 65.214844 56.753906 55.628906 47.167969 55.628906 35.386719 C 55.628906 23.601562 65.21875 14.019531 77 14.019531 C 88.777344 14.019531 98.367188 23.605469 98.367188 35.390625 C 98.367188 47.171875 88.78125 56.757812 77 56.757812 " clip-rule="nonzero"/></clipPath><clipPath id="6946afa5d1"><path d="M 0.398438 0 L 43.601562 0 L 43.601562 42.761719 L 0.398438 42.761719 Z M 0.398438 0 " clip-rule="nonzero"/></clipPath><clipPath id="253793b920"><path d="M 22 4.300781 C 12.574219 4.300781 4.914062 11.964844 4.914062 21.386719 C 4.914062 30.804688 12.578125 38.472656 22 38.472656 C 31.417969 38.472656 39.085938 30.804688 39.085938 21.386719 C 39.085938 11.964844 31.417969 4.300781 22 4.300781 M 22 42.753906 C 10.214844 42.753906 0.628906 33.167969 0.628906 21.386719 C 0.628906 9.601562 10.21875 0.0195312 22 0.0195312 C 33.777344 0.0195312 43.367188 9.605469 43.367188 21.390625 C 43.367188 33.171875 33.78125 42.757812 22 42.757812 " clip-rule="nonzero"/></clipPath><clipPath id="ea39092f8a"><rect x="0" width="44" y="0" height="43"/></clipPath><clipPath id="f0a0d7c2f2"><path d="M 43.589844 2 L 110.410156 2 L 110.410156 68.796875 L 43.589844 68.796875 Z M 43.589844 2 " clip-rule="nonzero"/></clipPath><clipPath id="fdb8aaf7f3"><path d="M 77 7.023438 C 61.355469 7.023438 48.628906 19.75 48.628906 35.390625 C 48.628906 51.03125 61.355469 63.753906 77 63.753906 C 92.640625 63.753906 105.367188 51.027344 105.367188 35.386719 C 105.367188 19.746094 92.640625 7.019531 77 7.019531 M 77 68.671875 C 58.644531 68.675781 43.710938 53.742188 43.710938 35.386719 C 43.710938 17.03125 58.644531 2.101562 77 2.101562 C 95.351562 2.101562 110.285156 17.03125 110.285156 35.386719 C 110.285156 53.742188 95.351562 68.671875 77 68.671875 " clip-rule="nonzero"/></clipPath><clipPath id="65bf232f92"><path d="M 0.640625 0.0390625 L 67.359375 0.0390625 L 67.359375 66.761719 L 0.640625 66.761719 Z M 0.640625 0.0390625 " clip-rule="nonzero"/></clipPath><clipPath id="a92b87ebb1"><path d="M 34 5.023438 C 18.355469 5.023438 5.628906 17.75 5.628906 33.390625 C 5.628906 49.03125 18.355469 61.753906 34 61.753906 C 49.640625 61.753906 62.367188 49.027344 62.367188 33.386719 C 62.367188 17.746094 49.640625 5.019531 34 5.019531 M 34 66.671875 C 15.644531 66.675781 0.710938 51.742188 0.710938 33.386719 C 0.710938 15.03125 15.644531 0.101562 34 0.101562 C 52.351562 0.101562 67.285156 15.03125 67.285156 33.386719 C 67.285156 51.742188 52.351562 66.671875 34 66.671875 " clip-rule="nonzero"/></clipPath><clipPath id="c712877092"><rect x="0" width="68" y="0" height="67"/></clipPath><clipPath id="1483aec9e8"><path d="M 65 23.335938 L 89 23.335938 L 89 47.4375 L 65 47.4375 Z M 65 23.335938 " clip-rule="nonzero"/></clipPath><clipPath id="18ab231dcb"><path d="M 65.066406 35.386719 C 65.066406 28.796875 70.410156 23.453125 77 23.453125 C 83.589844 23.453125 88.929688 28.796875 88.929688 35.386719 C 88.929688 41.976562 83.589844 47.316406 77 47.316406 C 70.410156 47.316406 65.066406 41.976562 65.066406 35.386719 " clip-rule="nonzero"/></clipPath><clipPath id="2c75bbf7e9"><path d="M 0 0.398438 L 24 0.398438 L 24 24.398438 L 0 24.398438 Z M 0 0.398438 " clip-rule="nonzero"/></clipPath><clipPath id="894f5d3b3f"><path d="M 0.0664062 12.386719 C 0.0664062 5.796875 5.410156 0.453125 12 0.453125 C 18.589844 0.453125 23.929688 5.796875 23.929688 12.386719 C 23.929688 18.976562 18.589844 24.316406 12 24.316406 C 5.410156 24.316406 0.0664062 18.976562 0.0664062 12.386719 " clip-rule="nonzero"/></clipPath><clipPath id="7b7cc62e1f"><rect x="0" width="24" y="0" height="25"/></clipPath><clipPath id="72c79771d1"><path d="M 1 73.40625 L 12.0625 73.40625 L 12.0625 88.867188 L 1 88.867188 Z M 1 73.40625 " clip-rule="nonzero"/></clipPath><clipPath id="aef7a50e29"><path d="M 6.566406 86.847656 C 7.210938 86.847656 7.792969 86.691406 8.308594 86.375 C 8.824219 86.058594 9.226562 85.636719 9.523438 85.117188 C 9.816406 84.597656 9.964844 84.019531 9.964844 83.386719 C 9.964844 82.765625 9.816406 82.191406 9.523438 81.664062 C 9.226562 81.136719 8.824219 80.71875 8.308594 80.40625 C 7.792969 80.097656 7.214844 79.945312 6.566406 79.945312 C 5.917969 79.945312 5.335938 80.097656 4.824219 80.40625 C 4.3125 80.71875 3.902344 81.136719 3.597656 81.664062 C 3.296875 82.191406 3.144531 82.765625 3.144531 83.386719 C 3.144531 84.019531 3.296875 84.597656 3.597656 85.117188 C 3.902344 85.636719 4.308594 86.058594 4.824219 86.375 C 5.335938 86.691406 5.917969 86.847656 6.566406 86.847656 M 6.566406 88.8125 C 5.523438 88.8125 4.585938 88.578125 3.757812 88.105469 C 2.925781 87.632812 2.269531 86.988281 1.78125 86.160156 C 1.296875 85.335938 1.054688 84.421875 1.054688 83.40625 L 1.054688 73.457031 L 3.144531 73.457031 L 3.144531 81.652344 L 2.066406 82.203125 C 2.066406 81.441406 2.273438 80.738281 2.691406 80.089844 C 3.105469 79.441406 3.660156 78.925781 4.359375 78.539062 C 5.054688 78.152344 5.820312 77.957031 6.648438 77.957031 C 7.703125 77.957031 8.636719 78.191406 9.449219 78.664062 C 10.257812 79.136719 10.894531 79.78125 11.359375 80.597656 C 11.824219 81.414062 12.054688 82.351562 12.054688 83.40625 C 12.054688 84.390625 11.816406 85.292969 11.335938 86.109375 C 10.859375 86.925781 10.203125 87.582031 9.375 88.074219 C 8.542969 88.5625 7.605469 88.8125 6.566406 88.8125 " clip-rule="nonzero"/></clipPath><clipPath id="d37fbe245f"><path d="M 0 0.40625 L 11.0625 0.40625 L 11.0625 15.867188 L 0 15.867188 Z M 0 0.40625 " clip-rule="nonzero"/></clipPath><clipPath id="3e6841c83e"><path d="M 5.566406 13.847656 C 6.210938 13.847656 6.792969 13.691406 7.308594 13.375 C 7.824219 13.058594 8.226562 12.636719 8.523438 12.117188 C 8.816406 11.597656 8.964844 11.019531 8.964844 10.386719 C 8.964844 9.765625 8.816406 9.191406 8.523438 8.664062 C 8.226562 8.136719 7.824219 7.71875 7.308594 7.40625 C 6.792969 7.097656 6.214844 6.945312 5.566406 6.945312 C 4.917969 6.945312 4.335938 7.097656 3.824219 7.40625 C 3.3125 7.71875 2.902344 8.136719 2.597656 8.664062 C 2.296875 9.191406 2.144531 9.765625 2.144531 10.386719 C 2.144531 11.019531 2.296875 11.597656 2.597656 12.117188 C 2.902344 12.636719 3.308594 13.058594 3.824219 13.375 C 4.335938 13.691406 4.917969 13.847656 5.566406 13.847656 M 5.566406 15.8125 C 4.523438 15.8125 3.585938 15.578125 2.757812 15.105469 C 1.925781 14.632812 1.269531 13.988281 0.78125 13.160156 C 0.296875 12.335938 0.0546875 11.421875 0.0546875 10.40625 L 0.0546875 0.457031 L 2.144531 0.457031 L 2.144531 8.652344 L 1.066406 9.203125 C 1.066406 8.441406 1.273438 7.738281 1.691406 7.089844 C 2.105469 6.441406 2.660156 5.925781 3.359375 5.539062 C 4.054688 5.152344 4.820312 4.957031 5.648438 4.957031 C 6.703125 4.957031 7.636719 5.191406 8.449219 5.664062 C 9.257812 6.136719 9.894531 6.78125 10.359375 7.597656 C 10.824219 8.414062 11.054688 9.351562 11.054688 10.40625 C 11.054688 11.390625 10.816406 12.292969 10.335938 13.109375 C 9.859375 13.925781 9.203125 14.582031 8.375 15.074219 C 7.542969 15.5625 6.605469 15.8125 5.566406 15.8125 " clip-rule="nonzero"/></clipPath><clipPath id="1d4fc10734"><rect x="0" width="12" y="0" height="16"/></clipPath><clipPath id="bbadf58d03"><path d="M 13.328125 77.9375 L 24.394531 77.9375 L 24.394531 88.867188 L 13.328125 88.867188 Z M 13.328125 77.9375 " clip-rule="nonzero"/></clipPath><clipPath id="6f3fc58d23"><path d="M 18.855469 86.828125 C 19.503906 86.828125 20.089844 86.671875 20.609375 86.363281 C 21.132812 86.054688 21.539062 85.632812 21.835938 85.105469 C 22.128906 84.578125 22.277344 84.003906 22.277344 83.386719 C 22.277344 82.753906 22.128906 82.175781 21.835938 81.65625 C 21.539062 81.132812 21.132812 80.714844 20.609375 80.398438 C 20.089844 80.078125 19.503906 79.921875 18.855469 79.921875 C 18.210938 79.921875 17.628906 80.082031 17.113281 80.398438 C 16.601562 80.714844 16.191406 81.132812 15.890625 81.65625 C 15.585938 82.175781 15.4375 82.753906 15.4375 83.386719 C 15.4375 84.003906 15.585938 84.578125 15.890625 85.105469 C 16.191406 85.632812 16.601562 86.054688 17.113281 86.363281 C 17.628906 86.671875 18.207031 86.828125 18.855469 86.828125 M 18.542969 88.8125 C 17.539062 88.8125 16.652344 88.566406 15.871094 88.074219 C 15.085938 87.582031 14.472656 86.921875 14.023438 86.097656 C 13.570312 85.273438 13.34375 84.363281 13.34375 83.363281 C 13.34375 82.378906 13.589844 81.472656 14.074219 80.648438 C 14.5625 79.828125 15.21875 79.171875 16.050781 78.6875 C 16.882812 78.203125 17.816406 77.957031 18.859375 77.957031 C 19.902344 77.957031 20.839844 78.191406 21.667969 78.664062 C 22.496094 79.136719 23.15625 79.78125 23.644531 80.597656 C 24.128906 81.414062 24.371094 82.335938 24.371094 83.363281 L 24.371094 88.558594 L 22.386719 88.558594 L 22.386719 84.695312 L 23.105469 84.144531 C 23.105469 85.015625 22.910156 85.804688 22.523438 86.507812 C 22.136719 87.210938 21.601562 87.773438 20.917969 88.1875 C 20.234375 88.601562 19.441406 88.808594 18.542969 88.808594 " clip-rule="nonzero"/></clipPath><clipPath id="9f0f733bda"><path d="M 0.328125 0.9375 L 11.394531 0.9375 L 11.394531 11.867188 L 0.328125 11.867188 Z M 0.328125 0.9375 " clip-rule="nonzero"/></clipPath><clipPath id="a734803e68"><path d="M 5.855469 9.828125 C 6.503906 9.828125 7.089844 9.671875 7.609375 9.363281 C 8.132812 9.054688 8.539062 8.632812 8.835938 8.105469 C 9.128906 7.578125 9.277344 7.003906 9.277344 6.386719 C 9.277344 5.753906 9.128906 5.175781 8.835938 4.65625 C 8.539062 4.132812 8.132812 3.714844 7.609375 3.398438 C 7.089844 3.078125 6.503906 2.921875 5.855469 2.921875 C 5.210938 2.921875 4.628906 3.082031 4.113281 3.398438 C 3.601562 3.714844 3.191406 4.132812 2.890625 4.65625 C 2.585938 5.175781 2.4375 5.753906 2.4375 6.386719 C 2.4375 7.003906 2.585938 7.578125 2.890625 8.105469 C 3.191406 8.632812 3.601562 9.054688 4.113281 9.363281 C 4.628906 9.671875 5.207031 9.828125 5.855469 9.828125 M 5.542969 11.8125 C 4.539062 11.8125 3.652344 11.566406 2.871094 11.074219 C 2.085938 10.582031 1.472656 9.921875 1.023438 9.097656 C 0.570312 8.273438 0.34375 7.363281 0.34375 6.363281 C 0.34375 5.378906 0.589844 4.472656 1.074219 3.648438 C 1.5625 2.828125 2.21875 2.171875 3.050781 1.6875 C 3.882812 1.203125 4.816406 0.957031 5.859375 0.957031 C 6.902344 0.957031 7.839844 1.191406 8.667969 1.664062 C 9.496094 2.136719 10.15625 2.78125 10.644531 3.597656 C 11.128906 4.414062 11.371094 5.335938 11.371094 6.363281 L 11.371094 11.558594 L 9.386719 11.558594 L 9.386719 7.695312 L 10.105469 7.144531 C 10.105469 8.015625 9.910156 8.804688 9.523438 9.507812 C 9.136719 10.210938 8.601562 10.773438 7.917969 11.1875 C 7.234375 11.601562 6.441406 11.808594 5.542969 11.808594 " clip-rule="nonzero"/></clipPath><clipPath id="5743429d52"><rect x="0" width="12" y="0" height="12"/></clipPath><clipPath id="7b2892a9d3"><path d="M 26.945312 77.957031 L 37.335938 77.957031 L 37.335938 88.589844 L 26.945312 88.589844 Z M 26.945312 77.957031 " clip-rule="nonzero"/></clipPath><clipPath id="5c94aa4ae7"><path d="M 32.078125 79.964844 C 31.402344 79.964844 30.839844 80.132812 30.390625 80.46875 C 29.9375 80.808594 29.601562 81.246094 29.375 81.78125 C 29.148438 82.316406 29.035156 82.90625 29.035156 83.554688 L 29.035156 88.558594 L 26.945312 88.558594 L 26.945312 83.34375 C 26.945312 82.328125 27.144531 81.417969 27.539062 80.605469 C 27.933594 79.796875 28.507812 79.152344 29.269531 78.675781 C 30.03125 78.199219 30.964844 77.957031 32.078125 77.957031 C 33.21875 77.957031 34.175781 78.195312 34.941406 78.675781 C 35.707031 79.15625 36.292969 79.800781 36.695312 80.609375 C 37.09375 81.417969 37.296875 82.324219 37.296875 83.324219 L 37.296875 88.558594 L 35.203125 88.558594 L 35.203125 83.574219 C 35.203125 82.925781 35.085938 82.332031 34.855469 81.789062 C 34.625 81.25 34.277344 80.808594 33.820312 80.46875 C 33.363281 80.132812 32.78125 79.964844 32.078125 79.964844 " clip-rule="nonzero"/></clipPath><clipPath id="9ab1d8c580"><path d="M 0.945312 0.957031 L 11.335938 0.957031 L 11.335938 11.589844 L 0.945312 11.589844 Z M 0.945312 0.957031 " clip-rule="nonzero"/></clipPath><clipPath id="a70eb6a85a"><path d="M 6.078125 2.964844 C 5.402344 2.964844 4.839844 3.132812 4.390625 3.46875 C 3.9375 3.808594 3.601562 4.246094 3.375 4.78125 C 3.148438 5.316406 3.035156 5.90625 3.035156 6.554688 L 3.035156 11.558594 L 0.945312 11.558594 L 0.945312 6.34375 C 0.945312 5.328125 1.144531 4.417969 1.539062 3.605469 C 1.933594 2.796875 2.507812 2.152344 3.269531 1.675781 C 4.03125 1.199219 4.964844 0.957031 6.078125 0.957031 C 7.21875 0.957031 8.175781 1.195312 8.941406 1.675781 C 9.707031 2.15625 10.292969 2.800781 10.695312 3.609375 C 11.09375 4.417969 11.296875 5.324219 11.296875 6.324219 L 11.296875 11.558594 L 9.203125 11.558594 L 9.203125 6.574219 C 9.203125 5.925781 9.085938 5.332031 8.855469 4.789062 C 8.625 4.25 8.277344 3.808594 7.820312 3.46875 C 7.363281 3.132812 6.78125 2.964844 6.078125 2.964844 " clip-rule="nonzero"/></clipPath><clipPath id="47f6f151de"><rect x="0" width="12" y="0" height="12"/></clipPath><clipPath id="850e999fd8"><path d="M 39.199219 77.9375 L 49.257812 77.9375 L 49.257812 88.832031 L 39.199219 88.832031 Z M 39.199219 77.9375 " clip-rule="nonzero"/></clipPath><clipPath id="f0d09382bf"><path d="M 44.625 88.789062 C 43.890625 88.804688 43.195312 88.671875 42.53125 88.390625 C 41.871094 88.109375 41.292969 87.71875 40.800781 87.21875 C 40.308594 86.71875 39.921875 86.136719 39.640625 85.476562 C 39.359375 84.8125 39.21875 84.109375 39.21875 83.363281 C 39.21875 82.617188 39.355469 81.917969 39.640625 81.261719 C 39.921875 80.605469 40.308594 80.03125 40.800781 79.53125 C 41.292969 79.03125 41.871094 78.644531 42.53125 78.371094 C 43.195312 78.097656 43.890625 77.957031 44.625 77.957031 C 45.582031 77.957031 46.46875 78.175781 47.285156 78.609375 C 48.105469 79.046875 48.75 79.738281 49.230469 80.679688 L 47.496094 81.652344 C 47.1875 81.078125 46.78125 80.644531 46.28125 80.363281 C 45.785156 80.082031 45.230469 79.941406 44.625 79.941406 C 44.019531 79.941406 43.464844 80.097656 42.964844 80.40625 C 42.464844 80.714844 42.066406 81.132812 41.761719 81.652344 C 41.460938 82.175781 41.308594 82.746094 41.308594 83.363281 C 41.308594 83.996094 41.460938 84.574219 41.761719 85.097656 C 42.066406 85.617188 42.464844 86.035156 42.964844 86.351562 C 43.464844 86.671875 44.019531 86.828125 44.625 86.828125 C 45.230469 86.828125 45.78125 86.683594 46.28125 86.394531 C 46.78125 86.105469 47.1875 85.679688 47.496094 85.117188 L 49.226562 86.066406 C 48.746094 86.996094 48.101562 87.683594 47.285156 88.125 C 46.46875 88.570312 45.582031 88.792969 44.621094 88.792969 " clip-rule="nonzero"/></clipPath><clipPath id="73df74fcb8"><path d="M 0.199219 0.9375 L 10.257812 0.9375 L 10.257812 11.832031 L 0.199219 11.832031 Z M 0.199219 0.9375 " clip-rule="nonzero"/></clipPath><clipPath id="0b92a50c1d"><path d="M 5.625 11.789062 C 4.890625 11.804688 4.195312 11.671875 3.53125 11.390625 C 2.871094 11.109375 2.292969 10.71875 1.800781 10.21875 C 1.308594 9.71875 0.921875 9.136719 0.640625 8.476562 C 0.359375 7.8125 0.21875 7.109375 0.21875 6.363281 C 0.21875 5.617188 0.355469 4.917969 0.640625 4.261719 C 0.921875 3.605469 1.308594 3.03125 1.800781 2.53125 C 2.292969 2.03125 2.871094 1.644531 3.53125 1.371094 C 4.195312 1.097656 4.890625 0.957031 5.625 0.957031 C 6.582031 0.957031 7.46875 1.175781 8.285156 1.609375 C 9.105469 2.046875 9.75 2.738281 10.230469 3.679688 L 8.496094 4.652344 C 8.1875 4.078125 7.78125 3.644531 7.28125 3.363281 C 6.785156 3.082031 6.230469 2.941406 5.625 2.941406 C 5.019531 2.941406 4.464844 3.097656 3.964844 3.40625 C 3.464844 3.714844 3.066406 4.132812 2.761719 4.652344 C 2.460938 5.175781 2.308594 5.746094 2.308594 6.363281 C 2.308594 6.996094 2.460938 7.574219 2.761719 8.097656 C 3.066406 8.617188 3.464844 9.035156 3.964844 9.351562 C 4.464844 9.671875 5.019531 9.828125 5.625 9.828125 C 6.230469 9.828125 6.78125 9.683594 7.28125 9.394531 C 7.78125 9.105469 8.1875 8.679688 8.496094 8.117188 L 10.226562 9.066406 C 9.746094 9.996094 9.101562 10.683594 8.285156 11.125 C 7.46875 11.570312 6.582031 11.792969 5.621094 11.792969 " clip-rule="nonzero"/></clipPath><clipPath id="cb4debea25"><rect x="0" width="11" y="0" height="12"/></clipPath><clipPath id="f461de3abd"><path d="M 50.238281 77.9375 L 61.332031 77.9375 L 61.332031 88.832031 L 50.238281 88.832031 Z M 50.238281 77.9375 " clip-rule="nonzero"/></clipPath><clipPath id="be4d05b1e8"><path d="M 55.816406 86.828125 C 56.464844 86.828125 57.042969 86.671875 57.558594 86.363281 C 58.074219 86.054688 58.476562 85.632812 58.773438 85.105469 C 59.066406 84.578125 59.214844 84.003906 59.214844 83.386719 C 59.214844 82.75 59.066406 82.175781 58.773438 81.652344 C 58.476562 81.132812 58.074219 80.714844 57.558594 80.398438 C 57.042969 80.078125 56.464844 79.921875 55.816406 79.921875 C 55.167969 79.921875 54.585938 80.082031 54.074219 80.398438 C 53.558594 80.710938 53.148438 81.132812 52.835938 81.652344 C 52.527344 82.175781 52.371094 82.75 52.371094 83.386719 C 52.371094 84.003906 52.527344 84.578125 52.835938 85.105469 C 53.144531 85.632812 53.558594 86.054688 54.074219 86.363281 C 54.589844 86.671875 55.167969 86.828125 55.816406 86.828125 M 55.816406 88.8125 C 54.773438 88.8125 53.835938 88.566406 53.007812 88.074219 C 52.179688 87.582031 51.515625 86.921875 51.023438 86.097656 C 50.527344 85.273438 50.28125 84.363281 50.28125 83.363281 C 50.28125 82.363281 50.527344 81.457031 51.023438 80.636719 C 51.515625 79.820312 52.175781 79.167969 53.007812 78.683594 C 53.839844 78.199219 54.773438 77.957031 55.816406 77.957031 C 56.859375 77.957031 57.792969 78.199219 58.625 78.6875 C 59.457031 79.171875 60.109375 79.828125 60.589844 80.648438 C 61.066406 81.472656 61.308594 82.378906 61.308594 83.363281 C 61.308594 84.363281 61.070312 85.273438 60.589844 86.097656 C 60.109375 86.921875 59.453125 87.582031 58.613281 88.074219 C 57.773438 88.566406 56.84375 88.8125 55.816406 88.8125 " clip-rule="nonzero"/></clipPath><clipPath id="a682b679b2"><path d="M 0.238281 0.9375 L 11.332031 0.9375 L 11.332031 11.832031 L 0.238281 11.832031 Z M 0.238281 0.9375 " clip-rule="nonzero"/></clipPath><clipPath id="e07aa0d59b"><path d="M 5.816406 9.828125 C 6.464844 9.828125 7.042969 9.671875 7.558594 9.363281 C 8.074219 9.054688 8.476562 8.632812 8.773438 8.105469 C 9.066406 7.578125 9.214844 7.003906 9.214844 6.386719 C 9.214844 5.75 9.066406 5.175781 8.773438 4.652344 C 8.476562 4.132812 8.074219 3.714844 7.558594 3.398438 C 7.042969 3.078125 6.464844 2.921875 5.816406 2.921875 C 5.167969 2.921875 4.585938 3.082031 4.074219 3.398438 C 3.558594 3.710938 3.148438 4.132812 2.835938 4.652344 C 2.527344 5.175781 2.371094 5.75 2.371094 6.386719 C 2.371094 7.003906 2.527344 7.578125 2.835938 8.105469 C 3.144531 8.632812 3.558594 9.054688 4.074219 9.363281 C 4.589844 9.671875 5.167969 9.828125 5.816406 9.828125 M 5.816406 11.8125 C 4.773438 11.8125 3.835938 11.566406 3.007812 11.074219 C 2.179688 10.582031 1.515625 9.921875 1.023438 9.097656 C 0.527344 8.273438 0.28125 7.363281 0.28125 6.363281 C 0.28125 5.363281 0.527344 4.457031 1.023438 3.636719 C 1.515625 2.820312 2.175781 2.167969 3.007812 1.683594 C 3.839844 1.199219 4.773438 0.957031 5.816406 0.957031 C 6.859375 0.957031 7.792969 1.199219 8.625 1.6875 C 9.457031 2.171875 10.109375 2.828125 10.589844 3.648438 C 11.066406 4.472656 11.308594 5.378906 11.308594 6.363281 C 11.308594 7.363281 11.070312 8.273438 10.589844 9.097656 C 10.109375 9.921875 9.453125 10.582031 8.613281 11.074219 C 7.773438 11.566406 6.84375 11.8125 5.816406 11.8125 " clip-rule="nonzero"/></clipPath><clipPath id="48f1be4a45"><rect x="0" width="12" y="0" height="12"/></clipPath><clipPath id="8e19b4cb20"><path d="M 68.152344 77.9375 L 78.210938 77.9375 L 78.210938 88.832031 L 68.152344 88.832031 Z M 68.152344 77.9375 " clip-rule="nonzero"/></clipPath><clipPath id="89b170d3cc"><path d="M 73.578125 88.789062 C 72.847656 88.804688 72.148438 88.671875 71.488281 88.390625 C 70.824219 88.109375 70.246094 87.71875 69.757812 87.21875 C 69.265625 86.71875 68.875 86.136719 68.59375 85.476562 C 68.3125 84.8125 68.171875 84.109375 68.171875 83.363281 C 68.171875 82.617188 68.3125 81.917969 68.59375 81.261719 C 68.878906 80.605469 69.261719 80.03125 69.757812 79.53125 C 70.25 79.03125 70.828125 78.644531 71.488281 78.371094 C 72.148438 78.097656 72.847656 77.957031 73.578125 77.957031 C 74.539062 77.957031 75.421875 78.175781 76.238281 78.609375 C 77.054688 79.046875 77.703125 79.738281 78.183594 80.679688 L 76.453125 81.652344 C 76.140625 81.078125 75.734375 80.644531 75.238281 80.363281 C 74.738281 80.082031 74.183594 79.941406 73.578125 79.941406 C 72.976562 79.941406 72.421875 80.097656 71.921875 80.40625 C 71.421875 80.714844 71.019531 81.132812 70.71875 81.652344 C 70.414062 82.175781 70.261719 82.746094 70.261719 83.363281 C 70.261719 83.996094 70.414062 84.574219 70.71875 85.097656 C 71.019531 85.617188 71.421875 86.035156 71.921875 86.351562 C 72.421875 86.671875 72.972656 86.828125 73.578125 86.828125 C 74.183594 86.828125 74.738281 86.683594 75.238281 86.394531 C 75.738281 86.105469 76.140625 85.679688 76.453125 85.117188 L 78.183594 86.066406 C 77.703125 86.996094 77.054688 87.683594 76.238281 88.125 C 75.421875 88.570312 74.535156 88.792969 73.578125 88.792969 " clip-rule="nonzero"/></clipPath><clipPath id="6be94472f8"><path d="M 0.152344 0.9375 L 10.199219 0.9375 L 10.199219 11.832031 L 0.152344 11.832031 Z M 0.152344 0.9375 " clip-rule="nonzero"/></clipPath><clipPath id="61cc027ee5"><path d="M 5.578125 11.789062 C 4.847656 11.804688 4.148438 11.671875 3.488281 11.390625 C 2.824219 11.109375 2.246094 10.71875 1.757812 10.21875 C 1.265625 9.71875 0.875 9.136719 0.59375 8.476562 C 0.3125 7.8125 0.171875 7.109375 0.171875 6.363281 C 0.171875 5.617188 0.3125 4.917969 0.59375 4.261719 C 0.878906 3.605469 1.261719 3.03125 1.757812 2.53125 C 2.25 2.03125 2.828125 1.644531 3.488281 1.371094 C 4.148438 1.097656 4.847656 0.957031 5.578125 0.957031 C 6.539062 0.957031 7.421875 1.175781 8.238281 1.609375 C 9.054688 2.046875 9.703125 2.738281 10.183594 3.679688 L 8.453125 4.652344 C 8.140625 4.078125 7.734375 3.644531 7.238281 3.363281 C 6.738281 3.082031 6.183594 2.941406 5.578125 2.941406 C 4.976562 2.941406 4.421875 3.097656 3.921875 3.40625 C 3.421875 3.714844 3.019531 4.132812 2.71875 4.652344 C 2.414062 5.175781 2.261719 5.746094 2.261719 6.363281 C 2.261719 6.996094 2.414062 7.574219 2.71875 8.097656 C 3.019531 8.617188 3.421875 9.035156 3.921875 9.351562 C 4.421875 9.671875 4.972656 9.828125 5.578125 9.828125 C 6.183594 9.828125 6.738281 9.683594 7.238281 9.394531 C 7.738281 9.105469 8.140625 8.679688 8.453125 8.117188 L 10.183594 9.066406 C 9.703125 9.996094 9.054688 10.683594 8.238281 11.125 C 7.421875 11.570312 6.535156 11.792969 5.578125 11.792969 " clip-rule="nonzero"/></clipPath><clipPath id="153dd9551b"><rect x="0" width="11" y="0" height="12"/></clipPath><clipPath id="23b8356f68"><path d="M 79.195312 77.9375 L 90.285156 77.9375 L 90.285156 88.832031 L 79.195312 88.832031 Z M 79.195312 77.9375 " clip-rule="nonzero"/></clipPath><clipPath id="0c7cec261b"><path d="M 84.75 86.828125 C 85.398438 86.828125 85.980469 86.671875 86.503906 86.363281 C 87.027344 86.054688 87.433594 85.632812 87.730469 85.105469 C 88.023438 84.578125 88.171875 84.003906 88.171875 83.386719 C 88.171875 82.75 88.023438 82.175781 87.730469 81.652344 C 87.433594 81.132812 87.027344 80.714844 86.503906 80.398438 C 85.984375 80.078125 85.398438 79.921875 84.75 79.921875 C 84.101562 79.921875 83.523438 80.082031 83.007812 80.398438 C 82.496094 80.710938 82.085938 81.132812 81.785156 81.652344 C 81.484375 82.175781 81.332031 82.75 81.332031 83.386719 C 81.332031 84.003906 81.484375 84.578125 81.785156 85.105469 C 82.085938 85.632812 82.496094 86.054688 83.007812 86.363281 C 83.523438 86.671875 84.105469 86.828125 84.75 86.828125 M 84.433594 88.8125 C 83.433594 88.8125 82.546875 88.566406 81.761719 88.074219 C 80.980469 87.582031 80.367188 86.921875 79.914062 86.097656 C 79.464844 85.273438 79.238281 84.363281 79.238281 83.363281 C 79.238281 82.378906 79.480469 81.472656 79.96875 80.648438 C 80.457031 79.828125 81.113281 79.171875 81.945312 78.6875 C 82.777344 78.203125 83.707031 77.957031 84.75 77.957031 C 85.792969 77.957031 86.726562 78.191406 87.558594 78.664062 C 88.390625 79.136719 89.046875 79.78125 89.535156 80.597656 C 90.023438 81.414062 90.265625 82.335938 90.265625 83.363281 L 90.265625 88.558594 L 88.277344 88.558594 L 88.277344 84.695312 L 88.996094 84.144531 C 88.996094 85.015625 88.804688 85.804688 88.414062 86.507812 C 88.027344 87.214844 87.492188 87.773438 86.808594 88.1875 C 86.128906 88.601562 85.335938 88.8125 84.433594 88.8125 " clip-rule="nonzero"/></clipPath><clipPath id="77187e2c4b"><path d="M 0.195312 0.9375 L 11.285156 0.9375 L 11.285156 11.832031 L 0.195312 11.832031 Z M 0.195312 0.9375 " clip-rule="nonzero"/></clipPath><clipPath id="98c4991fab"><path d="M 5.75 9.828125 C 6.398438 9.828125 6.980469 9.671875 7.503906 9.363281 C 8.027344 9.054688 8.433594 8.632812 8.730469 8.105469 C 9.023438 7.578125 9.171875 7.003906 9.171875 6.386719 C 9.171875 5.75 9.023438 5.175781 8.730469 4.652344 C 8.433594 4.132812 8.027344 3.714844 7.503906 3.398438 C 6.984375 3.078125 6.398438 2.921875 5.75 2.921875 C 5.101562 2.921875 4.523438 3.082031 4.007812 3.398438 C 3.496094 3.710938 3.085938 4.132812 2.785156 4.652344 C 2.484375 5.175781 2.332031 5.75 2.332031 6.386719 C 2.332031 7.003906 2.484375 7.578125 2.785156 8.105469 C 3.085938 8.632812 3.496094 9.054688 4.007812 9.363281 C 4.523438 9.671875 5.105469 9.828125 5.75 9.828125 M 5.433594 11.8125 C 4.433594 11.8125 3.546875 11.566406 2.761719 11.074219 C 1.980469 10.582031 1.367188 9.921875 0.914062 9.097656 C 0.464844 8.273438 0.238281 7.363281 0.238281 6.363281 C 0.238281 5.378906 0.480469 4.472656 0.96875 3.648438 C 1.457031 2.828125 2.113281 2.171875 2.945312 1.6875 C 3.777344 1.203125 4.707031 0.957031 5.75 0.957031 C 6.792969 0.957031 7.726562 1.191406 8.558594 1.664062 C 9.390625 2.136719 10.046875 2.78125 10.535156 3.597656 C 11.023438 4.414062 11.265625 5.335938 11.265625 6.363281 L 11.265625 11.558594 L 9.277344 11.558594 L 9.277344 7.695312 L 9.996094 7.144531 C 9.996094 8.015625 9.804688 8.804688 9.414062 9.507812 C 9.027344 10.214844 8.492188 10.773438 7.808594 11.1875 C 7.128906 11.601562 6.335938 11.8125 5.433594 11.8125 " clip-rule="nonzero"/></clipPath><clipPath id="bd0bda5642"><rect x="0" width="12" y="0" height="12"/></clipPath><clipPath id="9998e952b7"><path d="M 92.183594 77.957031 L 102.195312 77.957031 L 102.195312 88.828125 L 92.183594 88.828125 Z M 92.183594 77.957031 " clip-rule="nonzero"/></clipPath><clipPath id="4d61bfdd23"><path d="M 97.59375 88.789062 C 96.859375 88.804688 96.164062 88.671875 95.5 88.390625 C 94.839844 88.109375 94.261719 87.71875 93.769531 87.21875 C 93.277344 86.71875 92.890625 86.136719 92.609375 85.476562 C 92.328125 84.8125 92.183594 84.109375 92.183594 83.363281 C 92.183594 82.613281 92.324219 81.917969 92.605469 81.261719 C 92.886719 80.609375 93.277344 80.03125 93.765625 79.53125 C 94.257812 79.03125 94.839844 78.644531 95.5 78.371094 C 96.160156 78.097656 96.859375 77.957031 97.59375 77.957031 C 98.550781 77.957031 99.4375 78.175781 100.253906 78.609375 C 101.070312 79.046875 101.71875 79.738281 102.195312 80.679688 L 100.464844 81.652344 C 100.152344 81.078125 99.75 80.644531 99.25 80.363281 C 98.75 80.082031 98.195312 79.941406 97.59375 79.941406 C 96.988281 79.941406 96.433594 80.097656 95.933594 80.40625 C 95.433594 80.714844 95.03125 81.132812 94.730469 81.652344 C 94.429688 82.175781 94.277344 82.746094 94.277344 83.363281 C 94.277344 83.996094 94.429688 84.574219 94.730469 85.097656 C 95.03125 85.617188 95.433594 86.035156 95.933594 86.351562 C 96.433594 86.671875 96.984375 86.828125 97.59375 86.828125 C 98.199219 86.828125 98.75 86.683594 99.25 86.394531 C 99.75 86.105469 100.15625 85.679688 100.464844 85.117188 L 102.195312 86.066406 C 101.71875 86.996094 101.070312 87.683594 100.253906 88.125 C 99.4375 88.570312 98.546875 88.792969 97.59375 88.792969 " clip-rule="nonzero"/></clipPath><clipPath id="3b962f51cc"><path d="M 0.183594 0.957031 L 10.195312 0.957031 L 10.195312 11.828125 L 0.183594 11.828125 Z M 0.183594 0.957031 " clip-rule="nonzero"/></clipPath><clipPath id="91861b883b"><path d="M 5.59375 11.789062 C 4.859375 11.804688 4.164062 11.671875 3.5 11.390625 C 2.839844 11.109375 2.261719 10.71875 1.769531 10.21875 C 1.277344 9.71875 0.890625 9.136719 0.609375 8.476562 C 0.328125 7.8125 0.183594 7.109375 0.183594 6.363281 C 0.183594 5.613281 0.324219 4.917969 0.605469 4.261719 C 0.886719 3.609375 1.277344 3.03125 1.765625 2.53125 C 2.257812 2.03125 2.839844 1.644531 3.5 1.371094 C 4.160156 1.097656 4.859375 0.957031 5.59375 0.957031 C 6.550781 0.957031 7.4375 1.175781 8.253906 1.609375 C 9.070312 2.046875 9.71875 2.738281 10.195312 3.679688 L 8.464844 4.652344 C 8.152344 4.078125 7.75 3.644531 7.25 3.363281 C 6.75 3.082031 6.195312 2.941406 5.59375 2.941406 C 4.988281 2.941406 4.433594 3.097656 3.933594 3.40625 C 3.433594 3.714844 3.03125 4.132812 2.730469 4.652344 C 2.429688 5.175781 2.277344 5.746094 2.277344 6.363281 C 2.277344 6.996094 2.429688 7.574219 2.730469 8.097656 C 3.03125 8.617188 3.433594 9.035156 3.933594 9.351562 C 4.433594 9.671875 4.984375 9.828125 5.59375 9.828125 C 6.199219 9.828125 6.75 9.683594 7.25 9.394531 C 7.75 9.105469 8.15625 8.679688 8.464844 8.117188 L 10.195312 9.066406 C 9.71875 9.996094 9.070312 10.683594 8.253906 11.125 C 7.4375 11.570312 6.546875 11.792969 5.59375 11.792969 " clip-rule="nonzero"/></clipPath><clipPath id="3bc61e5331"><rect x="0" width="11" y="0" height="12"/></clipPath><clipPath id="9fd5d56a6b"><path d="M 103.992188 73.394531 L 106.714844 73.394531 L 106.714844 88.558594 L 103.992188 88.558594 Z M 103.992188 73.394531 " clip-rule="nonzero"/></clipPath><clipPath id="340341005a"><path d="M 104.328125 78.210938 L 106.417969 78.210938 L 106.417969 88.558594 L 104.328125 88.558594 Z M 105.363281 76.160156 C 105.125 76.160156 104.898438 76.101562 104.6875 75.980469 C 104.476562 75.863281 104.308594 75.695312 104.179688 75.484375 C 104.054688 75.273438 103.992188 75.042969 103.992188 74.789062 C 103.992188 74.535156 104.054688 74.304688 104.179688 74.089844 C 104.308594 73.878906 104.476562 73.710938 104.6875 73.585938 C 104.898438 73.457031 105.125 73.394531 105.363281 73.394531 C 105.617188 73.394531 105.84375 73.457031 106.050781 73.585938 C 106.253906 73.710938 106.414062 73.882812 106.535156 74.089844 C 106.65625 74.300781 106.714844 74.535156 106.714844 74.789062 C 106.714844 75.042969 106.65625 75.273438 106.535156 75.484375 C 106.414062 75.695312 106.253906 75.863281 106.050781 75.980469 C 105.847656 76.101562 105.617188 76.160156 105.363281 76.160156 " clip-rule="nonzero"/></clipPath><clipPath id="376811df70"><path d="M 0.992188 0.394531 L 3.714844 0.394531 L 3.714844 15.558594 L 0.992188 15.558594 Z M 0.992188 0.394531 " clip-rule="nonzero"/></clipPath><clipPath id="482e7620fb"><path d="M 1.328125 5.210938 L 3.417969 5.210938 L 3.417969 15.558594 L 1.328125 15.558594 Z M 2.363281 3.160156 C 2.125 3.160156 1.898438 3.101562 1.6875 2.980469 C 1.476562 2.863281 1.308594 2.695312 1.179688 2.484375 C 1.054688 2.273438 0.992188 2.042969 0.992188 1.789062 C 0.992188 1.535156 1.054688 1.304688 1.179688 1.089844 C 1.308594 0.878906 1.476562 0.710938 1.6875 0.585938 C 1.898438 0.457031 2.125 0.394531 2.363281 0.394531 C 2.617188 0.394531 2.84375 0.457031 3.050781 0.585938 C 3.253906 0.710938 3.414062 0.882812 3.535156 1.089844 C 3.65625 1.300781 3.714844 1.535156 3.714844 1.789062 C 3.714844 2.042969 3.65625 2.273438 3.535156 2.484375 C 3.414062 2.695312 3.253906 2.863281 3.050781 2.980469 C 2.847656 3.101562 2.617188 3.160156 2.363281 3.160156 " clip-rule="nonzero"/></clipPath><clipPath id="1c56fe8528"><rect x="0" width="4" y="0" height="16"/></clipPath><clipPath id="d0a4ebbcce"><path d="M 109.398438 77.914062 L 127.070312 77.914062 L 127.070312 88.558594 L 109.398438 88.558594 Z M 109.398438 77.914062 " clip-rule="nonzero"/></clipPath><clipPath id="d54d66e7d8"><path d="M 122.238281 77.914062 C 123.277344 77.914062 124.15625 78.148438 124.867188 78.613281 C 125.578125 79.074219 126.121094 79.703125 126.492188 80.492188 C 126.863281 81.28125 127.050781 82.152344 127.050781 83.109375 L 127.050781 88.558594 L 124.960938 88.558594 L 124.960938 83.449219 C 124.960938 82.816406 124.859375 82.230469 124.65625 81.695312 C 124.453125 81.160156 124.136719 80.730469 123.707031 80.40625 C 123.277344 80.085938 122.738281 79.921875 122.089844 79.921875 C 121.46875 79.921875 120.949219 80.078125 120.527344 80.394531 C 120.105469 80.710938 119.789062 81.136719 119.578125 81.664062 C 119.367188 82.191406 119.261719 82.769531 119.261719 83.40625 L 119.261719 88.558594 L 117.167969 88.558594 L 117.167969 83.40625 C 117.167969 82.773438 117.066406 82.191406 116.863281 81.664062 C 116.660156 81.136719 116.34375 80.714844 115.914062 80.398438 C 115.484375 80.082031 114.945312 79.921875 114.296875 79.921875 C 113.652344 79.921875 113.117188 80.085938 112.703125 80.410156 C 112.289062 80.734375 111.980469 81.164062 111.785156 81.695312 C 111.589844 82.230469 111.488281 82.816406 111.488281 83.449219 L 111.488281 88.558594 L 109.398438 88.558594 L 109.398438 83.132812 C 109.398438 82.160156 109.578125 81.28125 109.933594 80.492188 C 110.292969 79.703125 110.828125 79.074219 111.539062 78.613281 C 112.25 78.148438 113.121094 77.914062 114.148438 77.914062 C 115.023438 77.914062 115.777344 78.082031 116.421875 78.421875 C 117.0625 78.761719 117.5625 79.222656 117.917969 79.816406 C 118.277344 80.40625 118.464844 81.089844 118.480469 81.863281 L 118.015625 81.863281 C 118.042969 81.089844 118.238281 80.40625 118.59375 79.816406 C 118.953125 79.222656 119.449219 78.761719 120.074219 78.421875 C 120.699219 78.082031 121.421875 77.914062 122.238281 77.914062 " clip-rule="nonzero"/></clipPath><clipPath id="76ad913477"><path d="M 0.398438 0.914062 L 18.070312 0.914062 L 18.070312 11.558594 L 0.398438 11.558594 Z M 0.398438 0.914062 " clip-rule="nonzero"/></clipPath><clipPath id="e8ea75859d"><path d="M 13.238281 0.914062 C 14.277344 0.914062 15.15625 1.148438 15.867188 1.613281 C 16.578125 2.074219 17.121094 2.703125 17.492188 3.492188 C 17.863281 4.28125 18.050781 5.152344 18.050781 6.109375 L 18.050781 11.558594 L 15.960938 11.558594 L 15.960938 6.449219 C 15.960938 5.816406 15.859375 5.230469 15.65625 4.695312 C 15.453125 4.160156 15.136719 3.730469 14.707031 3.40625 C 14.277344 3.085938 13.738281 2.921875 13.089844 2.921875 C 12.46875 2.921875 11.949219 3.078125 11.527344 3.394531 C 11.105469 3.710938 10.789062 4.136719 10.578125 4.664062 C 10.367188 5.191406 10.261719 5.769531 10.261719 6.40625 L 10.261719 11.558594 L 8.167969 11.558594 L 8.167969 6.40625 C 8.167969 5.773438 8.066406 5.191406 7.863281 4.664062 C 7.660156 4.136719 7.34375 3.714844 6.914062 3.398438 C 6.484375 3.082031 5.945312 2.921875 5.296875 2.921875 C 4.652344 2.921875 4.117188 3.085938 3.703125 3.410156 C 3.289062 3.734375 2.980469 4.164062 2.785156 4.695312 C 2.589844 5.230469 2.488281 5.816406 2.488281 6.449219 L 2.488281 11.558594 L 0.398438 11.558594 L 0.398438 6.132812 C 0.398438 5.160156 0.578125 4.28125 0.933594 3.492188 C 1.292969 2.703125 1.828125 2.074219 2.539062 1.613281 C 3.25 1.148438 4.121094 0.914062 5.148438 0.914062 C 6.023438 0.914062 6.777344 1.082031 7.421875 1.421875 C 8.0625 1.761719 8.5625 2.222656 8.917969 2.816406 C 9.277344 3.40625 9.464844 4.089844 9.480469 4.863281 L 9.015625 4.863281 C 9.042969 4.089844 9.238281 3.40625 9.59375 2.816406 C 9.953125 2.222656 10.449219 1.761719 11.074219 1.421875 C 11.699219 1.082031 12.421875 0.914062 13.238281 0.914062 " clip-rule="nonzero"/></clipPath><clipPath id="3b7dcb766a"><rect x="0" width="19" y="0" height="12"/></clipPath><clipPath id="ecaee564df"><path d="M 129.574219 73.40625 L 140.640625 73.40625 L 140.640625 88.867188 L 129.574219 88.867188 Z M 129.574219 73.40625 " clip-rule="nonzero"/></clipPath><clipPath id="c423435254"><path d="M 135.140625 86.847656 C 135.789062 86.847656 136.371094 86.691406 136.882812 86.375 C 137.398438 86.058594 137.800781 85.636719 138.097656 85.117188 C 138.394531 84.597656 138.542969 84.019531 138.542969 83.386719 C 138.542969 82.765625 138.394531 82.191406 138.097656 81.664062 C 137.800781 81.136719 137.398438 80.71875 136.882812 80.40625 C 136.371094 80.097656 135.789062 79.945312 135.140625 79.945312 C 134.496094 79.945312 133.914062 80.097656 133.398438 80.40625 C 132.886719 80.71875 132.476562 81.136719 132.175781 81.664062 C 131.875 82.191406 131.722656 82.765625 131.722656 83.386719 C 131.722656 84.019531 131.875 84.597656 132.175781 85.117188 C 132.476562 85.636719 132.886719 86.058594 133.398438 86.375 C 133.914062 86.691406 134.496094 86.847656 135.140625 86.847656 M 135.140625 88.8125 C 134.101562 88.8125 133.164062 88.578125 132.332031 88.105469 C 131.503906 87.632812 130.84375 86.988281 130.359375 86.160156 C 129.875 85.335938 129.628906 84.421875 129.628906 83.40625 L 129.628906 73.457031 L 131.71875 73.457031 L 131.71875 81.652344 L 130.644531 82.203125 C 130.644531 81.441406 130.851562 80.738281 131.265625 80.089844 C 131.679688 79.441406 132.238281 78.925781 132.933594 78.539062 C 133.628906 78.152344 134.394531 77.957031 135.226562 77.957031 C 136.28125 77.957031 137.214844 78.191406 138.023438 78.664062 C 138.832031 79.136719 139.46875 79.78125 139.933594 80.597656 C 140.398438 81.414062 140.632812 82.351562 140.632812 83.40625 C 140.632812 84.390625 140.390625 85.292969 139.914062 86.109375 C 139.433594 86.925781 138.777344 87.582031 137.949219 88.074219 C 137.117188 88.5625 136.179688 88.8125 135.140625 88.8125 " clip-rule="nonzero"/></clipPath><clipPath id="e481d24ae7"><path d="M 0.574219 0.40625 L 11.640625 0.40625 L 11.640625 15.867188 L 0.574219 15.867188 Z M 0.574219 0.40625 " clip-rule="nonzero"/></clipPath><clipPath id="66e2167720"><path d="M 6.140625 13.847656 C 6.789062 13.847656 7.371094 13.691406 7.882812 13.375 C 8.398438 13.058594 8.800781 12.636719 9.097656 12.117188 C 9.394531 11.597656 9.542969 11.019531 9.542969 10.386719 C 9.542969 9.765625 9.394531 9.191406 9.097656 8.664062 C 8.800781 8.136719 8.398438 7.71875 7.882812 7.40625 C 7.371094 7.097656 6.789062 6.945312 6.140625 6.945312 C 5.496094 6.945312 4.914062 7.097656 4.398438 7.40625 C 3.886719 7.71875 3.476562 8.136719 3.175781 8.664062 C 2.875 9.191406 2.722656 9.765625 2.722656 10.386719 C 2.722656 11.019531 2.875 11.597656 3.175781 12.117188 C 3.476562 12.636719 3.886719 13.058594 4.398438 13.375 C 4.914062 13.691406 5.496094 13.847656 6.140625 13.847656 M 6.140625 15.8125 C 5.101562 15.8125 4.164062 15.578125 3.332031 15.105469 C 2.503906 14.632812 1.84375 13.988281 1.359375 13.160156 C 0.875 12.335938 0.628906 11.421875 0.628906 10.40625 L 0.628906 0.457031 L 2.71875 0.457031 L 2.71875 8.652344 L 1.644531 9.203125 C 1.644531 8.441406 1.851562 7.738281 2.265625 7.089844 C 2.679688 6.441406 3.238281 5.925781 3.933594 5.539062 C 4.628906 5.152344 5.394531 4.957031 6.226562 4.957031 C 7.28125 4.957031 8.214844 5.191406 9.023438 5.664062 C 9.832031 6.136719 10.46875 6.78125 10.933594 7.597656 C 11.398438 8.414062 11.632812 9.351562 11.632812 10.40625 C 11.632812 11.390625 11.390625 12.292969 10.914062 13.109375 C 10.433594 13.925781 9.777344 14.582031 8.949219 15.074219 C 8.117188 15.5625 7.179688 15.8125 6.140625 15.8125 " clip-rule="nonzero"/></clipPath><clipPath id="f328c466c5"><rect x="0" width="12" y="0" height="16"/></clipPath><clipPath id="0c3dbeb172"><path d="M 141.90625 77.9375 L 152.96875 77.9375 L 152.96875 88.867188 L 141.90625 88.867188 Z M 141.90625 77.9375 " clip-rule="nonzero"/></clipPath><clipPath id="5a937bb2b4"><path d="M 147.433594 86.828125 C 148.082031 86.828125 148.664062 86.671875 149.1875 86.363281 C 149.710938 86.054688 150.117188 85.632812 150.410156 85.105469 C 150.707031 84.578125 150.855469 84.003906 150.855469 83.386719 C 150.855469 82.753906 150.707031 82.175781 150.410156 81.65625 C 150.117188 81.132812 149.707031 80.714844 149.1875 80.398438 C 148.667969 80.078125 148.082031 79.921875 147.433594 79.921875 C 146.785156 79.921875 146.207031 80.082031 145.691406 80.398438 C 145.179688 80.714844 144.769531 81.132812 144.46875 81.65625 C 144.164062 82.175781 144.015625 82.753906 144.015625 83.386719 C 144.015625 84.003906 144.164062 84.578125 144.46875 85.105469 C 144.769531 85.632812 145.179688 86.054688 145.691406 86.363281 C 146.207031 86.671875 146.785156 86.828125 147.433594 86.828125 M 147.117188 88.8125 C 146.117188 88.8125 145.226562 88.566406 144.445312 88.074219 C 143.664062 87.582031 143.050781 86.921875 142.597656 86.097656 C 142.148438 85.273438 141.921875 84.363281 141.921875 83.363281 C 141.921875 82.378906 142.164062 81.472656 142.652344 80.648438 C 143.136719 79.828125 143.796875 79.171875 144.625 78.6875 C 145.457031 78.203125 146.394531 77.957031 147.433594 77.957031 C 148.476562 77.957031 149.414062 78.191406 150.246094 78.664062 C 151.074219 79.136719 151.734375 79.78125 152.21875 80.597656 C 152.707031 81.414062 152.949219 82.335938 152.949219 83.363281 L 152.949219 88.558594 L 150.960938 88.558594 L 150.960938 84.695312 L 151.679688 84.144531 C 151.679688 85.015625 151.488281 85.804688 151.101562 86.507812 C 150.710938 87.210938 150.175781 87.773438 149.496094 88.1875 C 148.8125 88.601562 148.019531 88.808594 147.117188 88.808594 " clip-rule="nonzero"/></clipPath><clipPath id="72d5fb4ec3"><path d="M 0.90625 0.9375 L 11.96875 0.9375 L 11.96875 11.867188 L 0.90625 11.867188 Z M 0.90625 0.9375 " clip-rule="nonzero"/></clipPath><clipPath id="dd67427d8d"><path d="M 6.433594 9.828125 C 7.082031 9.828125 7.664062 9.671875 8.1875 9.363281 C 8.710938 9.054688 9.117188 8.632812 9.410156 8.105469 C 9.707031 7.578125 9.855469 7.003906 9.855469 6.386719 C 9.855469 5.753906 9.707031 5.175781 9.410156 4.65625 C 9.117188 4.132812 8.707031 3.714844 8.1875 3.398438 C 7.667969 3.078125 7.082031 2.921875 6.433594 2.921875 C 5.785156 2.921875 5.207031 3.082031 4.691406 3.398438 C 4.179688 3.714844 3.769531 4.132812 3.46875 4.65625 C 3.164062 5.175781 3.015625 5.753906 3.015625 6.386719 C 3.015625 7.003906 3.164062 7.578125 3.46875 8.105469 C 3.769531 8.632812 4.179688 9.054688 4.691406 9.363281 C 5.207031 9.671875 5.785156 9.828125 6.433594 9.828125 M 6.117188 11.8125 C 5.117188 11.8125 4.226562 11.566406 3.445312 11.074219 C 2.664062 10.582031 2.050781 9.921875 1.597656 9.097656 C 1.148438 8.273438 0.921875 7.363281 0.921875 6.363281 C 0.921875 5.378906 1.164062 4.472656 1.652344 3.648438 C 2.136719 2.828125 2.796875 2.171875 3.625 1.6875 C 4.457031 1.203125 5.394531 0.957031 6.433594 0.957031 C 7.476562 0.957031 8.414062 1.191406 9.246094 1.664062 C 10.074219 2.136719 10.734375 2.78125 11.21875 3.597656 C 11.707031 4.414062 11.949219 5.335938 11.949219 6.363281 L 11.949219 11.558594 L 9.960938 11.558594 L 9.960938 7.695312 L 10.679688 7.144531 C 10.679688 8.015625 10.488281 8.804688 10.101562 9.507812 C 9.710938 10.210938 9.175781 10.773438 8.496094 11.1875 C 7.8125 11.601562 7.019531 11.808594 6.117188 11.808594 " clip-rule="nonzero"/></clipPath><clipPath id="27f9d64e07"><rect x="0" width="12" y="0" height="12"/></clipPath><clipPath id="fdeee0d0cb"><rect x="0" width="155" y="0" height="90"/></clipPath></defs><g transform="matrix(1, 0, 0, 1, 19, 51)"><g clip-path="url(#fdeee0d0cb)"><g clip-path="url(#2426991570)"><g clip-path="url(#e8b87fcc31)"><g transform="matrix(1, 0, 0, 1, 55, 14)"><g clip-path="url(#ea39092f8a)"><g clip-path="url(#6946afa5d1)"><g clip-path="url(#253793b920)"><rect x="-143.888" width="331.776" fill="#c9a074" y="-134.887999" height="331.775993" fill-opacity="1"/></g></g></g></g></g></g><g clip-path="url(#f0a0d7c2f2)"><g clip-path="url(#fdb8aaf7f3)"><g transform="matrix(1, 0, 0, 1, 43, 2)"><g clip-path="url(#c712877092)"><g clip-path="url(#65bf232f92)"><g clip-path="url(#a92b87ebb1)"><rect x="-131.888" width="331.776" fill="#000000" y="-122.887999" height="331.775993" fill-opacity="1"/></g></g></g></g></g></g><g clip-path="url(#1483aec9e8)"><g clip-path="url(#18ab231dcb)"><g transform="matrix(1, 0, 0, 1, 65, 23)"><g clip-path="url(#7b7cc62e1f)"><g clip-path="url(#2c75bbf7e9)"><g clip-path="url(#894f5d3b3f)"><rect x="-153.888" width="331.776" fill="#019245" y="-143.887999" height="331.775993" fill-opacity="1"/></g></g></g></g></g></g><g clip-path="url(#72c79771d1)"><g clip-path="url(#aef7a50e29)"><g transform="matrix(1, 0, 0, 1, 1, 73)"><g clip-path="url(#1d4fc10734)"><g clip-path="url(#d37fbe245f)"><g clip-path="url(#3e6841c83e)"><rect x="-89.888" width="331.776" fill="#000000" y="-193.887999" height="331.775993" fill-opacity="1"/></g></g></g></g></g></g><g clip-path="url(#bbadf58d03)"><g clip-path="url(#6f3fc58d23)"><g transform="matrix(1, 0, 0, 1, 13, 77)"><g clip-path="url(#5743429d52)"><g clip-path="url(#9f0f733bda)"><g clip-path="url(#a734803e68)"><rect x="-101.888" width="331.776" fill="#000000" y="-197.887999" height="331.775993" fill-opacity="1"/></g></g></g></g></g></g><g clip-path="url(#7b2892a9d3)"><g clip-path="url(#5c94aa4ae7)"><g transform="matrix(1, 0, 0, 1, 26, 77)"><g clip-path="url(#47f6f151de)"><g clip-path="url(#9ab1d8c580)"><g clip-path="url(#a70eb6a85a)"><path fill="#000000" d="M 0.945312 0.957031 L 11.296875 0.957031 L 11.296875 11.546875 L 0.945312 11.546875 Z M 0.945312 0.957031 " fill-opacity="1" fill-rule="nonzero"/></g></g></g></g></g></g><g clip-path="url(#850e999fd8)"><g clip-path="url(#f0d09382bf)"><g transform="matrix(1, 0, 0, 1, 39, 77)"><g clip-path="url(#cb4debea25)"><g clip-path="url(#73df74fcb8)"><g clip-path="url(#0b92a50c1d)"><path fill="#000000" d="M -0.636719 0.101562 L 23.164062 0.101562 L 23.164062 12.667969 L -0.636719 12.667969 Z M -0.636719 0.101562 " fill-opacity="1" fill-rule="nonzero"/></g></g></g></g></g></g><g clip-path="url(#f461de3abd)"><g clip-path="url(#be4d05b1e8)"><g transform="matrix(1, 0, 0, 1, 50, 77)"><g clip-path="url(#48f1be4a45)"><g clip-path="url(#a682b679b2)"><g clip-path="url(#e07aa0d59b)"><path fill="#000000" d="M -11.636719 0.101562 L 12.164062 0.101562 L 12.164062 12.667969 L -11.636719 12.667969 Z M -11.636719 0.101562 " fill-opacity="1" fill-rule="nonzero"/></g></g></g></g></g></g><g clip-path="url(#8e19b4cb20)"><g clip-path="url(#89b170d3cc)"><g transform="matrix(1, 0, 0, 1, 68, 77)"><g clip-path="url(#153dd9551b)"><g clip-path="url(#6be94472f8)"><g clip-path="url(#61cc027ee5)"><path fill="#000000" d="M -0.683594 0.101562 L 23.121094 0.101562 L 23.121094 12.667969 L -0.683594 12.667969 Z M -0.683594 0.101562 " fill-opacity="1" fill-rule="nonzero"/></g></g></g></g></g></g><g clip-path="url(#23b8356f68)"><g clip-path="url(#0c7cec261b)"><g transform="matrix(1, 0, 0, 1, 79, 77)"><g clip-path="url(#bd0bda5642)"><g clip-path="url(#77187e2c4b)"><g clip-path="url(#98c4991fab)"><path fill="#000000" d="M -11.683594 0.101562 L 12.121094 0.101562 L 12.121094 12.667969 L -11.683594 12.667969 Z M -11.683594 0.101562 " fill-opacity="1" fill-rule="nonzero"/></g></g></g></g></g></g><g clip-path="url(#9998e952b7)"><g clip-path="url(#4d61bfdd23)"><g transform="matrix(1, 0, 0, 1, 92, 77)"><g clip-path="url(#3bc61e5331)"><g clip-path="url(#3b962f51cc)"><g clip-path="url(#91861b883b)"><path fill="#000000" d="M 0.183594 0.957031 L 10.195312 0.957031 L 10.195312 11.789062 L 0.183594 11.789062 Z M 0.183594 0.957031 " fill-opacity="1" fill-rule="nonzero"/></g></g></g></g></g></g><g clip-path="url(#9fd5d56a6b)"><g clip-path="url(#340341005a)"><g transform="matrix(1, 0, 0, 1, 103, 73)"><g clip-path="url(#1c56fe8528)"><g clip-path="url(#376811df70)"><g clip-path="url(#482e7620fb)"><path fill="#000000" d="M 0.992188 0.394531 L 3.714844 0.394531 L 3.714844 15.558594 L 0.992188 15.558594 Z M 0.992188 0.394531 " fill-opacity="1" fill-rule="nonzero"/></g></g></g></g></g></g><g clip-path="url(#d0a4ebbcce)"><g clip-path="url(#d54d66e7d8)"><g transform="matrix(1, 0, 0, 1, 109, 77)"><g clip-path="url(#3b7dcb766a)"><g clip-path="url(#76ad913477)"><g clip-path="url(#e8ea75859d)"><path fill="#000000" d="M 0.398438 0.914062 L 18.070312 0.914062 L 18.070312 11.558594 L 0.398438 11.558594 Z M 0.398438 0.914062 " fill-opacity="1" fill-rule="nonzero"/></g></g></g></g></g></g><g clip-path="url(#ecaee564df)"><g clip-path="url(#c423435254)"><g transform="matrix(1, 0, 0, 1, 129, 73)"><g clip-path="url(#f328c466c5)"><g clip-path="url(#e481d24ae7)"><g clip-path="url(#66e2167720)"><rect x="-217.888" width="331.776" fill="#000000" y="-193.887999" height="331.775993" fill-opacity="1"/></g></g></g></g></g></g><g clip-path="url(#0c3dbeb172)"><g clip-path="url(#5a937bb2b4)"><g transform="matrix(1, 0, 0, 1, 141, 77)"><g clip-path="url(#27f9d64e07)"><g clip-path="url(#72d5fb4ec3)"><g clip-path="url(#dd67427d8d)"><rect x="-229.888" width="331.776" fill="#000000" y="-197.887999" height="331.775993" fill-opacity="1"/></g></g></g></g></g></g></g></g></svg>